<svg xmlns="http://www.w3.org/2000/svg" width="173.034" height="34.438" viewBox="0 0 173.034 34.438" fill="none">
  <path d="M 8.193 0 L 8.193 27.081 L 25.444 27.081 L 25.444 33.786 L 0 33.786 L 0 0 L 8.193 0 Z M 51.038 27.314 C 51.038 28.554 51.577 29.085 52.547 29.085 C 53.236 29.097 53.919 28.951 54.542 28.657 L 54.542 32.772 C 53.357 33.631 51.849 34.323 49.473 34.323 C 46.618 34.323 44.513 32.822 43.812 30.139 C 42.462 32.875 39.497 34.323 35.778 34.323 C 30.981 34.323 27.963 31.91 27.963 27.835 C 27.963 23.276 31.414 21.347 36.692 20.326 L 43.375 19.148 L 43.375 18.717 C 43.375 16.465 42.244 15.122 39.872 15.122 C 37.608 15.122 36.474 16.518 36.043 18.5 L 28.82 17.963 C 29.643 12.871 33.472 9.326 40.317 9.326 C 46.571 9.326 51.038 12.117 51.038 18.608 L 51.038 27.314 Z M 43.391 23.22 L 39.457 24.023 C 37.032 24.504 35.523 25.096 35.523 26.973 C 35.523 28.368 36.601 29.224 38.272 29.224 C 41.128 29.224 43.394 27.078 43.394 23.701 L 43.391 23.22 Z M 56.487 33.786 L 62.473 33.786 L 63.872 29.488 C 65.166 32.385 68.184 34.422 72.174 34.422 C 79.344 34.422 83.01 28.899 83.01 21.874 C 83.01 14.908 79.344 9.326 72.336 9.326 C 68.184 9.326 65.437 11.422 64.25 14.266 L 64.25 0 L 56.487 0 L 56.487 33.786 Z M 69.696 28.424 C 66.463 28.424 64.253 26.011 64.253 22.15 L 64.253 21.614 C 64.253 17.805 66.46 15.392 69.696 15.392 C 73.359 15.392 75.139 18.019 75.139 21.88 C 75.139 25.797 73.362 28.424 69.696 28.424 Z M 90.984 25.85 C 91.296 28.157 93.142 29.444 96.053 29.444 C 98.154 29.444 99.557 28.694 99.557 27.407 C 99.557 26.225 98.803 25.583 96.864 25.261 L 93.198 24.671 C 87.699 23.812 84.734 21.936 84.734 17.228 C 84.734 12.616 88.787 9.344 95.193 9.344 C 101.986 9.344 106.029 12.347 106.512 17.442 L 100.097 17.656 C 99.719 15.566 98.048 14.384 95.084 14.384 C 93.142 14.384 91.966 15.187 91.966 16.475 C 91.966 17.439 92.721 18.025 93.909 18.19 L 98.544 18.993 C 103.772 19.796 106.793 22.094 106.793 26.663 C 106.793 31.65 102.534 34.438 96.013 34.438 C 89.544 34.438 84.637 31.811 84.207 26.017 L 90.984 25.85 Z M 107.962 15.392 L 111.304 15.392 L 111.307 27.404 C 111.307 32.766 114.811 34.428 118.692 34.428 C 121.819 34.428 123.867 33.678 125.647 32.338 L 125.647 27.249 C 124.438 27.845 123.114 28.174 121.766 28.213 C 119.929 28.213 118.96 27.354 118.96 25.317 L 118.96 15.392 L 125.322 15.392 L 125.322 9.974 L 118.96 9.974 L 118.96 3.371 L 114.162 3.371 L 113.355 6.535 C 112.763 8.743 112.061 9.977 109.689 10.405 L 107.962 10.672 L 107.962 15.392 Z M 152.12 25.955 C 150.873 31.37 146.621 34.428 140.367 34.428 C 132.767 34.428 127.377 29.817 127.377 22.255 C 127.377 14.747 132.876 9.326 140.196 9.326 C 148.12 9.326 152.273 14.741 152.273 21.232 L 152.273 23.592 L 135.033 23.592 C 135.248 26.756 137.621 28.579 140.645 28.579 C 143.338 28.579 145.009 27.562 145.872 25.363 L 152.12 25.955 Z M 144.788 19.467 C 144.625 17.107 143.117 14.961 140.152 14.961 C 137.035 14.961 135.569 16.946 135.139 19.467 L 144.788 19.467 Z M 168.452 16.571 C 170.123 16.571 171.301 16.837 172.548 17.535 L 173.034 10.29 C 172.386 9.754 171.148 9.326 169.692 9.326 C 166.457 9.326 163.978 11.636 163.062 14.316 L 163.062 9.974 L 155.299 9.974 L 155.299 33.783 L 163.062 33.783 L 163.062 22.522 C 163.062 18.394 165.219 16.571 168.452 16.571 Z" fill="currentColor" fill-rule="evenodd"/>
</svg>
