<svg xmlns="http://www.w3.org/2000/svg" width="17.056" height="17.056" viewBox="0 0 17.056 17.056" fill="none">
  <path d="M 5 17.056 C 2.978 17.056 1.155 15.838 0.381 13.97 C -0.393 12.102 0.034 9.951 1.464 8.521 L 3.586 6.399 L 5 7.813 L 2.879 9.934 C 2.121 10.692 1.825 11.797 2.103 12.832 C 2.38 13.867 3.189 14.676 4.224 14.954 C 5.259 15.231 6.364 14.935 7.122 14.177 L 9.243 12.056 L 10.657 13.471 L 8.536 15.592 C 7.6 16.533 6.327 17.06 5 17.056 Z M 5.707 12.763 L 4.293 11.349 L 11.364 4.278 L 12.778 5.692 L 5.708 12.762 L 5.707 12.763 Z M 13.486 10.642 L 12.071 9.228 L 14.192 7.107 C 14.96 6.351 15.264 5.242 14.988 4.2 C 14.712 3.158 13.899 2.345 12.857 2.068 C 11.816 1.792 10.706 2.096 9.95 2.864 L 7.828 4.985 L 6.414 3.571 L 8.536 1.449 C 10.491 -0.489 13.645 -0.482 15.592 1.464 C 17.538 3.411 17.545 6.565 15.607 8.52 L 13.486 10.641 L 13.486 10.642 Z" fill="currentColor" fill-rule="nonzero"/>
</svg>
