<svg xmlns="http://www.w3.org/2000/svg" width="19.991" height="19.989" viewBox="0 0 19.991 19.989" fill="none">
  <path d="M 3.999 19.989 C 2.313 19.989 0.809 18.932 0.237 17.346 C -0.334 15.76 0.15 13.986 1.448 12.91 C 2.746 11.834 4.579 11.687 6.031 12.543 L 12.553 6.021 C 11.533 4.288 11.961 2.066 13.551 0.835 C 15.142 -0.396 17.4 -0.252 18.822 1.171 C 20.244 2.594 20.386 4.852 19.154 6.442 C 17.922 8.032 15.7 8.458 13.967 7.436 L 7.446 13.957 C 8.176 15.194 8.186 16.727 7.474 17.974 C 6.761 19.221 5.435 19.99 3.999 19.989 Z M 3.999 13.989 C 2.895 13.989 1.999 14.885 1.999 15.989 C 1.999 17.094 2.895 17.989 3.999 17.989 C 5.104 17.989 5.999 17.094 5.999 15.989 C 5.999 14.885 5.104 13.989 3.999 13.989 Z M 15.999 1.989 C 14.907 1.991 14.017 2.868 14.001 3.961 C 13.986 5.053 14.85 5.956 15.942 5.989 C 17.034 6.021 17.95 5.171 17.999 4.079 L 17.999 4.479 L 17.999 3.989 C 17.999 2.885 17.104 1.989 15.999 1.989 Z" fill="currentColor" fill-rule="nonzero"/>
</svg>
