<svg xmlns="http://www.w3.org/2000/svg" width="20" height="20" viewBox="0 0 20 20" fill="none">
  <path d="M 10.233 8.176 L 10.233 12.041 L 15.72 12.041 C 15.21 14.497 13.072 15.908 10.233 15.908 C 6.926 15.863 4.269 13.229 4.269 9.995 C 4.269 6.761 6.926 4.127 10.233 4.082 C 11.607 4.081 12.939 4.547 14 5.402 L 16.978 2.49 C 13.562 -0.447 8.574 -0.824 4.737 1.563 C 0.9 3.95 -0.863 8.529 0.409 12.798 C 1.682 17.068 5.685 20.003 10.233 20 C 15.348 20 20 16.361 20 9.994 C 19.992 9.381 19.915 8.771 19.771 8.175 L 10.233 8.176 Z" fill="currentColor" fill-rule="nonzero"/>
</svg>
