<svg xmlns="http://www.w3.org/2000/svg" width="20" height="20" viewBox="0 0 20 20" fill="none">
  <path d="M 8.25 11 C 8.25 11.69 7.69 12.25 7 12.25 C 6.31 12.25 5.75 11.69 5.75 11 C 5.75 10.31 6.31 9.75 7 9.75 C 7.69 9.75 8.25 10.31 8.25 11 Z M 13 9.75 C 12.31 9.75 11.75 10.31 11.75 11 C 11.75 11.69 12.31 12.25 13 12.25 C 13.69 12.25 14.25 11.69 14.25 11 C 14.25 10.31 13.69 9.75 13 9.75 Z M 20 10 C 20 15.52 15.52 20 10 20 C 4.48 20 0 15.52 0 10 C 0 4.48 4.48 0 10 0 C 15.52 0 20 4.48 20 10 Z M 8.66 2.12 C 10.06 4.44 12.6 6 15.5 6 C 15.96 6 16.41 5.95 16.84 5.88 C 15.44 3.56 12.9 2 10 2 C 9.54 2 9.09 2.05 8.66 2.12 Z M 2.42 7.47 C 4.13 6.5 5.45 4.92 6.08 3.03 C 4.37 4 3.05 5.58 2.42 7.47 Z M 18 10 C 18 9.22 17.88 8.47 17.67 7.76 C 16.97 7.91 16.25 8 15.5 8 C 12.37 8 9.58 6.56 7.74 4.31 C 6.69 6.87 4.6 8.88 2 9.86 C 2.01 9.9 2 9.95 2 10 C 2 14.41 5.59 18 10 18 C 14.41 18 18 14.41 18 10 Z" fill="currentColor" fill-rule="nonzero"/>
</svg>
