<svg xmlns="http://www.w3.org/2000/svg" width="20" height="16" viewBox="0 0 20 16" fill="none">
  <path d="M 18 16 L 2 16 C 0.895 16 0 15.105 0 14 L 0 2 C 0 0.895 0.895 0 2 0 L 18 0 C 19.105 0 20 0.895 20 2 L 20 14 C 20 15.105 19.105 16 18 16 Z M 2 2 L 2 14 L 18 14 L 18 2 L 2 2 Z M 13.5 12 C 12.119 12 11 10.881 11 9.5 C 11 8.119 12.119 7 13.5 7 C 14.881 7 16 8.119 16 9.5 C 16 10.163 15.737 10.799 15.268 11.268 C 14.799 11.737 14.163 12 13.5 12 Z M 9.5 12 C 8.119 12 7 10.881 7 9.5 C 7 8.119 8.119 7 9.5 7 C 10.043 7 10.57 7.18 11 7.512 C 10.371 7.979 10.001 8.716 10.001 9.5 C 10.001 10.283 10.371 11.02 11 11.487 C 10.57 11.819 10.043 11.999 9.5 12 Z" fill="currentColor" fill-rule="nonzero"/>
</svg>
