<svg xmlns="http://www.w3.org/2000/svg" width="18.906" height="18.906" viewBox="0 0 18.906 18.906" fill="none">
  <path d="M 9.835 18.906 C 9.304 18.908 8.794 18.697 8.42 18.32 L 0.586 10.485 C 0.173 10.073 -0.039 9.5 0.006 8.918 L 0.506 2.352 C 0.577 1.364 1.364 0.58 2.352 0.511 L 8.918 0.011 C 8.969 0 9.021 0 9.072 0 C 9.602 0.001 10.11 0.212 10.485 0.586 L 18.32 8.42 C 18.695 8.795 18.906 9.304 18.906 9.834 C 18.906 10.365 18.695 10.874 18.32 11.249 L 11.249 18.32 C 10.875 18.696 10.366 18.907 9.835 18.906 Z M 9.071 2 L 2.5 2.5 L 2 9.071 L 9.835 16.906 L 16.905 9.836 L 9.071 2 Z M 5.592 7.592 C 4.638 7.592 3.816 6.918 3.63 5.983 C 3.444 5.047 3.944 4.11 4.826 3.744 C 5.707 3.379 6.724 3.687 7.254 4.481 C 7.785 5.274 7.681 6.331 7.006 7.006 C 6.632 7.382 6.123 7.593 5.592 7.592 Z" fill="currentColor" fill-rule="nonzero"/>
</svg>
