<svg xmlns="http://www.w3.org/2000/svg" width="20.017" height="14.012" viewBox="0 0 20.017 14.012" fill="none">
  <path d="M 10.021 14.012 L 10.001 14.012 C 9.939 14.012 3.736 14 2.171 13.575 C 1.31 13.343 0.638 12.671 0.407 11.81 C 0.125 10.222 -0.011 8.612 0.001 7 C -0.007 5.385 0.133 3.773 0.418 2.183 C 0.655 1.322 1.324 0.646 2.184 0.4 C 3.706 0 9.738 0 9.994 0 L 10.015 0 C 10.078 0 16.297 0.012 17.846 0.437 C 18.704 0.67 19.375 1.341 19.608 2.2 C 19.898 3.794 20.034 5.411 20.015 7.031 C 20.022 8.644 19.882 10.254 19.597 11.842 C 19.362 12.702 18.69 13.373 17.83 13.605 C 16.31 14.008 10.277 14.012 10.021 14.012 Z M 8.021 4.005 L 8.016 10.005 L 13.228 7.005 L 8.021 4.005 Z" fill="currentColor" fill-rule="nonzero"/>
</svg>
