<svg xmlns="http://www.w3.org/2000/svg" width="16.857" height="20" viewBox="0 0 16.857 20" fill="none">
  <path d="M 4 8.341 L 4 10.535 C 2.804 11.227 2 12.52 2 14 C 2 16.21 3.79 18 6 18 C 7.48 18 8.773 17.196 9.465 16 L 11.658 16 C 10.835 18.33 8.612 20 6 20 C 2.686 20 0 17.314 0 14 C 0 11.387 1.67 9.165 4 8.341 L 4 8.341 Z M 8 15 C 6.343 15 5 13.657 5 12 L 5 8 C 5 6.956 5.534 6.036 6.343 5.499 C 5.533 4.964 5 4.044 5 3 C 5 1.343 6.343 0 8 0 C 9.657 0 11 1.343 11 3 C 11 4.044 10.466 4.964 9.657 5.501 C 10.467 6.036 11 6.956 11 8 L 11 12.999 L 12.434 13 C 13.082 13 13.687 13.314 14.06 13.836 L 14.149 13.971 L 16.857 18.486 L 15.143 19.514 L 12.433 15 L 11 14.999 L 8 15 Z M 8 7 C 7.448 7 7 7.448 7 8 L 7 12 C 7 12.552 7.448 13 8 13 L 8.999 13 L 9 8 C 9 7.448 8.552 7 8 7 Z M 8 2 C 7.448 2 7 2.448 7 3 C 7 3.552 7.448 4 8 4 C 8.552 4 9 3.552 9 3 C 9 2.448 8.552 2 8 2 Z" fill="currentColor" fill-rule="nonzero"/>
</svg>
